<!-- Generated by IcoMoon.io -->
<svg version="1.1" xmlns="http://www.w3.org/2000/svg" width="768" height="768" viewBox="0 0 768 768">
<title></title>
<g id="icomoon-ignore">
</g>
<path fill="#000" d="M384 656c-150.016 0-272-121.984-272-272s121.984-272 271.904-272c150.080 0 272.096 121.984 272.096 272s-121.984 272-272 272zM384 176c-114.752 0-208 93.312-208 208s93.312 208 208 208 208-93.312 208-208-93.312-208-208-208z"></path>
<path fill="#000" d="M384.096 272c61.728 0 111.904 50.24 111.904 112 0 6.592-0.64 13.184-1.824 19.68l-129.824-129.888c6.496-1.152 13.056-1.792 19.648-1.792zM384.096 240c-28.224 0-54.272 8.384-76.48 22.304l198.016 198.016c14.016-22.144 22.368-48.256 22.368-76.384 0-79.36-64.448-143.936-143.904-143.936z"></path>
<path fill="#000" d="M273.824 364.288l129.888 129.92c-6.528 1.152-13.088 1.792-19.712 1.792-61.76 0-112-50.24-112-112.064 0-6.592 0.64-13.184 1.824-19.648zM262.368 307.552c-13.92 22.208-22.368 48.256-22.368 76.384 0 79.552 64.512 144.064 144 144.064 28.128 0 54.176-8.448 76.384-22.368l-198.016-198.080z"></path>
</svg>
